<?xml version="1.0" standalone="no"?>
<!DOCTYPE svg PUBLIC "-//W3C//DTD SVG 20010904//EN"
 "http://www.w3.org/TR/2001/REC-SVG-20010904/DTD/svg10.dtd">
<svg version="1.0" xmlns="http://www.w3.org/2000/svg"
 width="512.000000pt" height="512.000000pt" viewBox="0 0 512.000000 512.000000"
 preserveAspectRatio="xMidYMid meet">

<g transform="translate(0.000000,512.000000) scale(0.100000,-0.100000)"
fill="#000000" stroke="none">
<path d="M3330 4574 c-290 -17 -348 -25 -429 -65 -60 -29 -122 -87 -706 -670
l-640 -639 360 0 360 0 695 695 695 695 -55 -1 c-30 -1 -156 -8 -280 -15z"/>
<path d="M3120 3815 l-695 -695 590 -590 590 -590 546 547 c301 302 558 566
571 588 53 86 71 153 71 260 0 107 -18 174 -71 260 -22 36 -889 915 -902 915
-3 0 -318 -313 -700 -695z"/>
<path d="M898 2543 c-452 -454 -498 -504 -526 -564 -68 -142 -66 -286 4 -428
35 -71 63 -102 427 -469 l391 -392 380 0 380 0 -396 398 c-370 372 -397 402
-432 473 -73 147 -73 300 -1 447 36 73 62 101 513 555 l476 477 -360 0 -360 0
-496 -497z"/>
<path d="M1794 2488 c-403 -405 -516 -524 -534 -563 -35 -73 -34 -209 0 -280
19 -38 131 -159 470 -502 l445 -453 90 0 90 0 567 567 568 568 -587 587 c-324
324 -590 588 -593 588 -3 0 -235 -231 -516 -512z"/>
<path d="M400 517 c-53 -27 -58 -111 -10 -137 12 -6 589 -10 1603 -10 l1584 0
21 23 c22 23 28 60 16 92 -18 47 41 45 -1626 45 -1240 0 -1568 -3 -1588 -13z"/>
</g>
</svg>
