<?xml version="1.0" standalone="no"?>
<!DOCTYPE svg PUBLIC "-//W3C//DTD SVG 20010904//EN"
 "http://www.w3.org/TR/2001/REC-SVG-20010904/DTD/svg10.dtd">
<svg version="1.0" xmlns="http://www.w3.org/2000/svg"
 width="512.000000pt" height="512.000000pt" viewBox="0 0 512.000000 512.000000"
 preserveAspectRatio="xMidYMid meet">

<g transform="translate(0.000000,512.000000) scale(0.100000,-0.100000)"
fill="#000000" stroke="none">
<path d="M3910 4835 c-44 -21 -112 -83 -339 -308 -156 -155 -296 -300 -312
-321 -22 -30 -29 -50 -29 -84 l0 -46 198 -199 c108 -109 209 -205 224 -213 34
-18 72 -18 106 0 15 8 167 155 339 328 294 296 312 316 327 367 20 68 20 94 0
162 -14 47 -31 69 -133 172 -64 65 -134 128 -156 139 -24 13 -66 23 -105 25
-55 3 -74 0 -120 -22z"/>
<path d="M2855 3795 c-43 -23 -1841 -1821 -1871 -1871 -63 -105 -274 -626
-274 -676 0 -46 22 -83 61 -104 56 -28 42 -33 464 147 l280 119 932 932 c734
735 933 940 938 964 4 19 1 45 -8 65 -15 35 -306 343 -378 400 -47 37 -102 47
-144 24z"/>
<path d="M3619 1439 c-280 -41 -582 -183 -989 -465 -210 -145 -338 -223 -508
-309 -422 -213 -767 -269 -984 -159 -116 59 -195 156 -248 304 -33 91 -65 130
-106 130 -39 0 -80 -26 -94 -61 -12 -27 -10 -40 10 -103 68 -212 189 -363 355
-442 100 -48 174 -65 305 -71 350 -15 788 154 1298 501 260 176 376 250 490
309 272 141 522 207 676 178 199 -37 290 -171 322 -474 7 -70 33 -105 85 -113
31 -5 42 -1 70 24 33 30 34 32 32 103 -10 283 -130 509 -318 599 -109 52 -255
70 -396 49z"/>
</g>
</svg>
